PathFileType	4	(X/Y/Z)	/Users/itak/Documents/Research/Walk-IL/dataset/trc/00037_00004.trc
DataRate	CameraRate	NumFrames	NumMarkers	Units	OrigDataRate	OrigDataStartFrame	OrigNumFrames
100.000000	100.000000	4	53	mm	100.000000	389	778
Frame#	Time	RPSI			LPSI			L3			STRN			T10			C7			CLAV			RBAK			LBAK			LSHO			LUPA			LAEL			LAOL			LWTS			LWPS			LFRA			LIFD			LHPS			LHTS			RSHO			RUPA			RAEL			RAOL			RWTS			RWPS			RFRA			RIFD			RHTS			RHPS			RBHD			LFHD			RFHD			LBHD			RHIP			RASI			LASI			LKNE			LTHI			LANK			LTIP			LTOE			LMT1			LMT5			LHEE			RKNE			RTHI			RANK			RTIP			RTOE			RMT1			RMT5			RHEE			LHIP			
		X1	Y1	Z1	X2	Y2	Z2	X3	Y3	Z3	X4	Y4	Z4	X5	Y5	Z5	X6	Y6	Z6	X7	Y7	Z7	X8	Y8	Z8	X9	Y9	Z9	X10	Y10	Z10	X11	Y11	Z11	X12	Y12	Z12	X13	Y13	Z13	X14	Y14	Z14	X15	Y15	Z15	X16	Y16	Z16	X17	Y17	Z17	X18	Y18	Z18	X19	Y19	Z19	X20	Y20	Z20	X21	Y21	Z21	X22	Y22	Z22	X23	Y23	Z23	X24	Y24	Z24	X25	Y25	Z25	X26	Y26	Z26	X27	Y27	Z27	X28	Y28	Z28	X29	Y29	Z29	X30	Y30	Z30	X31	Y31	Z31	X32	Y32	Z32	X33	Y33	Z33	X34	Y34	Z34	X35	Y35	Z35	X36	Y36	Z36	X37	Y37	Z37	X38	Y38	Z38	X39	Y39	Z39	X40	Y40	Z40	X41	Y41	Z41	X42	Y42	Z42	X43	Y43	Z43	X44	Y44	Z44	X45	Y45	Z45	X46	Y46	Z46	X47	Y47	Z47	X48	Y48	Z48	X49	Y49	Z49	X50	Y50	Z50	X51	Y51	Z51	X52	Y52	Z52	X53	Y53	Z53	

390	3.89	-260.8150329589844	1030.42138671875	-462.8310852050781	-348.837890625	1035.923217773438	-600.5765991210938	-316.5511169433594	1099.627075195312	-532.4550170898438	-114.7015533447266	1284.70947265625	-629.0208740234375	-339.5950927734375	1244.162841796875	-520.0560913085938	-284.6296997070312	1510.41943359375	-545.4483032226562	-147.8669281005859	1411.287109375	-609.2504272460938	-310.3766174316406	1371.33154296875	-454.0225524902344	-346.05908203125	1478.237670898438	-625.5394897460938	-285.088134765625	1485.372680664062	-735.3380126953125	-363.9526062011719	1373.006713867188	-797.0950927734375	-413.5509948730469	1164.011352539062	-830.9522705078125	-420.0110778808594	1146.651977539062	-726.49853515625	-359.8793029785156	895.5195922851562	-836.6727294921875	-449.1895751953125	899.2723999023438	-840.9122314453125	-426.8052978515625	1049.434204101562	-849.3501586914062	-370.2039184570312	704.3868408203125	-837.5503540039062	-438.2734985351562	805.2266845703125	-857.99169921875	-366.8221435546875	800.6873168945312	-859.9560546875	-148.3936920166016	1480.4248046875	-418.3621215820312	-141.1754760742188	1409.730102539062	-348.4593200683594	-199.6448974609375	1150.321655273438	-304.6639099121094	-231.0792236328125	1122.094848632812	-396.2891235351562	-104.8055725097656	881.3380126953125	-363.6867065429688	-150.1387634277344	871.1170654296875	-283.6451721191406	-189.6427459716797	1073.200073242188	-290.895263671875	-104.7366180419922	696.5648803710938	-381.6412963867188	-75.95359802246094	771.2230224609375	-356.974609375	-117.1086959838867	768.6456298828125	-293.8617553710938	-178.6011657714844	1695.846557617188	-640.902587890625	-21.57711410522461	1646.748901367188	-497.5597839355469	-7.191678524017334	1657.025024414062	-594.4181518554688	-192.6665954589844	1677.21435546875	-498.3817138671875	-117.1888885498047	906.2798461914062	-444.4010620117188	-64.77949523925781	951.9244384765625	-553.3582153320312	-187.293212890625	993.0823974609375	-751.32177734375	-142.4229431152344	532.0003051757812	-823.1663208007812	-220.4178161621094	657.2321166992188	-818.2521362304688	-249.5563201904297	33.88462066650391	-827.1659545898438	-219.9525451660156	287.5374755859375	-834.3005981445312	-20.89287567138672	36.69574356079102	-827.5963134765625	-72.06517791748047	46.09448623657227	-795.972412109375	-139.2351531982422	31.53555107116699	-882.9491577148438	-299.6902770996094	44.13280868530273	-757.6163940429688	-115.6177825927734	466.7529602050781	-514.2743530273438	-99.56275939941406	741.4609985351562	-474.3686218261719	-502.3116760253906	221.2060089111328	-308.6248168945312	-198.8759155273438	370.3753967285156	-470.6459045410156	-472.50048828125	34.19242095947266	-439.4275207519531	-501.3240356445312	93.91441345214844	-433.5171813964844	-450.7108764648438	86.45677947998047	-351.91845703125	-544.3818969726562	274.8056030273438	-324.5486450195312	-319.0283813476562	947.5897827148438	-755.1228637695312	
391	3.9	-255.5750885009766	1031.518920898438	-468.3706970214844	-341.9619750976562	1037.167114257812	-607.0219116210938	-310.644287109375	1101.23779296875	-538.7815551757812	-106.7452011108398	1285.8173828125	-632.7901000976562	-333.6506042480469	1245.800537109375	-527.5604858398438	-277.9693908691406	1511.881103515625	-552.7886962890625	-140.1634063720703	1412.461791992188	-613.8168334960938	-305.4130249023438	1373.040161132812	-461.5169067382812	-337.8252563476562	1479.630615234375	-633.9749145507812	-274.7610473632812	1486.562133789062	-742.6064453125	-352.273193359375	1374.345947265625	-806.3455810546875	-400.8026428222656	1165.564575195312	-842.4519653320312	-409.6713562011719	1147.520141601562	-738.3291625976562	-346.7797241210938	897.1299438476562	-848.755126953125	-435.7570495605469	900.9006958007812	-855.0980834960938	-413.4732055664062	1051.127319335938	-861.913330078125	-356.6982727050781	706.010498046875	-851.5209350585938	-424.3587646484375	807.0303344726562	-872.7264404296875	-353.0536499023438	802.5076904296875	-872.9532470703125	-143.8917694091797	1481.908935546875	-423.2217712402344	-138.0873413085938	1411.489990234375	-353.0166625976562	-198.05322265625	1152.559204101562	-309.0820617675781	-228.0809020996094	1124.040405273438	-401.1386108398438	-104.6138305664062	882.425537109375	-364.5676879882812	-151.2948455810547	873.2000122070312	-285.2229614257812	-188.767822265625	1075.55859375	-294.6643371582031	-106.2668228149414	697.2944946289062	-381.212890625	-77.04641723632812	772.0262451171875	-356.6335144042969	-119.2191467285156	770.3091430664062	-294.186767578125	-170.4631500244141	1697.142944335938	-646.2788696289062	-15.47628784179688	1648.037109375	-500.7222290039062	0.3206231296062469	1658.395751953125	-597.3701171875	-186.5521697998047	1678.412963867188	-504.0217895507812	-111.612434387207	907.57080078125	-448.4031372070312	-58.36139678955078	953.6605224609375	-556.63427734375	-178.7923889160156	994.0494995117188	-756.1156005859375	-138.5262451171875	531.0311889648438	-826.189453125	-214.8376159667969	657.1887817382812	-822.1455078125	-249.5685729980469	33.88982009887695	-827.166748046875	-218.4222869873047	287.1801452636719	-835.8369140625	-20.80215454101562	36.65957641601562	-827.6292114257812	-72.05673980712891	46.1635627746582	-796.013427734375	-139.3323974609375	31.49255180358887	-883.0487060546875	-299.8471984863281	44.25725555419922	-757.6863403320312	-99.52112579345703	468.4702758789062	-522.426513671875	-90.66542053222656	743.2568969726562	-479.3098449707031	-491.8149108886719	228.8051452636719	-323.2730102539062	-183.4462432861328	372.7239685058594	-480.3870544433594	-455.283203125	35.15140151977539	-445.2860717773438	-485.3165588378906	96.19760894775391	-442.8824157714844	-437.2445373535156	93.52752685546875	-359.5723266601562	-534.17041015625	281.0993957519531	-342.4795837402344	-310.6204833984375	948.74365234375	-760.9498291015625	
392	3.91	-250.341552734375	1032.758666992188	-473.7662658691406	-335.1381530761719	1038.419799804688	-613.2965087890625	-304.77392578125	1102.885375976562	-544.933349609375	-98.83522033691406	1286.999755859375	-636.4033813476562	-327.6574096679688	1247.478515625	-534.8357543945312	-271.217041015625	1513.38671875	-559.8857421875	-132.5154876708984	1413.683471679688	-618.184814453125	-300.3714904785156	1374.794799804688	-468.79296875	-329.5957641601562	1481.082153320312	-642.1056518554688	-264.4959411621094	1487.814453125	-749.558837890625	-340.6436767578125	1375.755981445312	-815.21484375	-387.9805297851562	1167.215087890625	-853.591552734375	-399.1824645996094	1148.425903320312	-749.8619384765625	-333.4402465820312	898.9071044921875	-860.645263671875	-422.1018676757812	902.6514282226562	-869.0545043945312	-399.9878540039062	1052.937133789062	-874.1665649414062	-342.8556823730469	707.8424682617188	-865.415771484375	-410.1361083984375	808.9832763671875	-887.2899169921875	-338.9546203613281	804.5482788085938	-885.86572265625	-139.3342437744141	1483.43701171875	-427.9212036132812	-134.9715576171875	1413.315063476562	-357.4521179199219	-196.5662841796875	1154.893798828125	-313.3793640136719	-225.2170104980469	1126.101928710938	-405.8049621582031	-104.4580383300781	883.7452392578125	-365.6112670898438	-152.3745727539062	875.4129028320312	-286.9494018554688	-187.9636840820312	1077.996337890625	-298.3490600585938	-107.6888885498047	698.3228759765625	-381.1566772460938	-78.09087371826172	773.0994262695312	-356.6071472167969	-121.2006607055664	772.1473999023438	-294.8150939941406	-162.2655029296875	1698.453247070312	-651.4736328125	-9.335763931274414	1649.316284179688	-503.7609252929688	7.847522735595703	1659.725219726562	-600.1842651367188	-180.3475036621094	1679.671264648438	-509.5004272460938	-106.0177230834961	909.0849609375	-452.1607971191406	-51.94821548461914	955.5385131835938	-559.7357177734375	-170.3517303466797	995.0455932617188	-760.6554565429688	-134.8287811279297	530.052490234375	-828.8836669921875	-209.3549194335938	657.1472778320312	-825.7366943359375	-249.5690002441406	33.93610382080078	-827.1389770507812	-216.9792785644531	286.8434143066406	-837.1832885742188	-20.68076324462891	36.59922790527344	-827.6585693359375	-72.04636383056641	46.21227264404297	-796.0252685546875	-139.3891754150391	31.46031379699707	-883.1083984375	-299.9545593261719	44.42295455932617	-757.71240234375	-83.6021728515625	470.6611938476562	-530.194091796875	-81.81582641601562	745.3308715820312	-483.8867492675781	-480.7122497558594	234.8679809570312	-338.53515625	-167.9757843017578	375.3292846679688	-489.8960266113281	-435.8154907226562	36.56227111816406	-452.3488464355469	-467.5007934570312	97.98638153076172	-453.3485412597656	-422.0477294921875	100.112663269043	-368.4595947265625	-523.6696166992188	285.5646362304688	-360.7635803222656	-302.2534790039062	949.826904296875	-766.5327758789062	
393	3.92	-245.1074676513672	1034.12255859375	-479.0272216796875	-328.3420715332031	1039.688354492188	-619.4142456054688	-298.9150695800781	1104.564697265625	-550.9330444335938	-90.98097229003906	1288.247436523438	-639.8748168945312	-321.6038818359375	1249.18505859375	-541.8991088867188	-264.3758544921875	1514.928588867188	-566.7393798828125	-124.9211044311523	1414.946044921875	-622.372802734375	-295.2616577148438	1376.581298828125	-475.8623352050781	-321.3956909179688	1482.58203125	-649.9287109375	-254.3157348632812	1489.131958007812	-756.2009887695312	-329.0995788574219	1377.23779296875	-823.697265625	-375.1170043945312	1168.959106445312	-864.3585815429688	-388.5547790527344	1149.370727539062	-761.077392578125	-319.8569641113281	900.8518676757812	-872.3367309570312	-408.2348022460938	904.5169677734375	-882.7371826171875	-386.37548828125	1054.859497070312	-886.0841674804688	-328.627685546875	709.91455078125	-879.201416015625	-395.6168212890625	811.0855102539062	-901.6292724609375	-324.5072326660156	806.8355102539062	-898.656982421875	-134.7154846191406	1484.998779296875	-432.4666137695312	-131.8198699951172	1415.1884765625	-361.7776794433594	-195.1689147949219	1157.306884765625	-317.5990600585938	-222.4511566162109	1128.256958007812	-410.33935546875	-104.298454284668	885.2564086914062	-366.8084106445312	-153.3864135742188	877.7271118164062	-288.8274536132812	-187.2237396240234	1080.495483398438	-301.9879760742188	-108.949348449707	699.6146240234375	-381.4412536621094	-79.04725646972656	774.39892578125	-356.8550415039062	-123.0526657104492	774.1223754882812	-295.7159729003906	-154.0081481933594	1699.776733398438	-656.4899291992188	-3.157420873641968	1650.583618164062	-506.6709289550781	15.38331127166748	1661.000854492188	-602.8536987304688	-174.0544738769531	1680.992553710938	-514.8182983398438	-100.4136962890625	910.78662109375	-455.68505859375	-45.54442977905273	957.5210571289062	-562.67578125	-161.9611968994141	996.05615234375	-764.9362182617188	-131.3915405273438	529.07373046875	-831.2957153320312	-204.0376892089844	657.1062622070312	-829.0468139648438	-249.5622100830078	34.01507186889648	-827.0897827148438	-215.6650085449219	286.5366516113281	-838.348876953125	-20.54056930541992	36.51957321166992	-827.6967163085938	-72.03150939941406	46.25028991699219	-796.0275268554688	-139.416748046875	31.4314136505127	-883.1458740234375	-299.9822082519531	44.60800933837891	-757.6965942382812	-67.895263671875	473.2984313964844	-537.5416259765625	-73.03919219970703	747.6486206054688	-488.0766296386719	-468.9179382324219	239.1980438232422	-354.2979736328125	-152.4645233154297	378.1108093261719	-499.1314697265625	-414.6075439453125	38.2343635559082	-460.8836975097656	-448.2537231445312	99.25060272216797	-464.9503173828125	-405.4046020507812	105.8362884521484	-378.6838989257812	-512.6873779296875	288.150146484375	-379.1314697265625	-293.9193725585938	950.8550415039062	-771.8927001953125	
